<svg xmlns="http://www.w3.org/2000/svg" viewBox="0 0 20 18.32"><defs><style>.cls-1{fill:#999;}</style></defs><title>setting icon</title><g id="레이어_2" data-name="레이어 2"><g id="레이어_2-2" data-name="레이어 2"><path class="cls-1" d="M15.91,10.16H20v-2H15.91a6,6,0,0,0-2.09-3.62l2-3.54L14.13,0l-2,3.54a5.94,5.94,0,0,0-4.18,0L5.87,0,4.13,1,6.18,4.54A6,6,0,0,0,4.09,8.16H0v2H4.09a5.92,5.92,0,0,0,2.09,3.62l-2,3.54,1.74,1,2-3.54a5.94,5.94,0,0,0,4.18,0l2,3.54,1.74-1-2-3.54A5.92,5.92,0,0,0,15.91,10.16Zm-5.91,3a4,4,0,1,1,4-4A4,4,0,0,1,10,13.16Z"/></g></g></svg>